<svg width="32" height="32" viewBox="0 0 32 32" fill="none" xmlns="http://www.w3.org/2000/svg">
<g clip-path="url(#clip0_420_578)">
<path d="M15.1667 16.0001C15.1667 16.2211 15.2545 16.4331 15.4108 16.5893C15.567 16.7456 15.779 16.8334 16 16.8334C16.221 16.8334 16.433 16.7456 16.5893 16.5893C16.7456 16.4331 16.8334 16.2211 16.8334 16.0001C16.8334 15.7791 16.7456 15.5671 16.5893 15.4108C16.433 15.2545 16.221 15.1667 16 15.1667C15.779 15.1667 15.567 15.2545 15.4108 15.4108C15.2545 15.5671 15.1667 15.7791 15.1667 16.0001Z" stroke="#8FA0A8" stroke-width="1.25" stroke-linecap="round" stroke-linejoin="round"/>
<path d="M16 11.8333C15.1759 11.8333 14.3703 12.0776 13.6851 12.5355C12.9999 12.9933 12.4658 13.644 12.1505 14.4054C11.8351 15.1668 11.7526 16.0045 11.9134 16.8128C12.0741 17.621 12.471 18.3635 13.0537 18.9462C13.6364 19.5289 14.3789 19.9258 15.1871 20.0865C15.9954 20.2473 16.8331 20.1648 17.5945 19.8494C18.3559 19.5341 19.0066 19 19.4644 18.3148C19.9223 17.6296 20.1666 16.824 20.1666 15.9999" stroke="#8FA0A8" stroke-width="1.25" stroke-linecap="round" stroke-linejoin="round"/>
<path d="M16.8333 8.54579C15.2884 8.37246 13.7277 8.68352 12.3673 9.43593C11.0069 10.1883 9.91387 11.3449 9.2395 12.7457C8.56513 14.1464 8.34271 15.7221 8.60302 17.2548C8.86332 18.7875 9.59349 20.2014 10.6925 21.301C11.7915 22.4006 13.2051 23.1314 14.7376 23.3925C16.2702 23.6536 17.846 23.432 19.2471 22.7583C20.6482 22.0846 21.8053 20.9922 22.5584 19.6322C23.3115 18.2721 23.6233 16.7117 23.4508 15.1666" stroke="#8FA0A8" stroke-width="1.25" stroke-linecap="round" stroke-linejoin="round"/>
<path d="M18.5 11V13.5H21L23.5 11H21V8.5L18.5 11Z" stroke="#8FA0A8" stroke-width="1.25" stroke-linecap="round" stroke-linejoin="round"/>
<path d="M18.5 13.5L16 16" stroke="#8FA0A8" stroke-width="1.25" stroke-linecap="round" stroke-linejoin="round"/>
</g>
<defs>
<clipPath id="clip0_420_578">
<rect width="20" height="20" fill="white" transform="translate(6 6)"/>
</clipPath>
</defs>
</svg>
