<svg width="24" height="24" viewBox="0 0 24 24" fill="none" xmlns="http://www.w3.org/2000/svg">
<path d="M12 6H7.33333C6.97971 6 6.64057 6.14048 6.39052 6.39052C6.14048 6.64057 6 6.97971 6 7.33333V16.6667C6 17.0203 6.14048 17.3594 6.39052 17.6095C6.64057 17.8595 6.97971 18 7.33333 18H16.6667C17.0203 18 17.3594 17.8595 17.6095 17.6095C17.8595 17.3594 18 17.0203 18 16.6667V12" stroke="#475660" stroke-linecap="round" stroke-linejoin="round"/>
<path d="M16.25 5.75015C16.5152 5.48493 16.8749 5.33594 17.25 5.33594C17.6251 5.33594 17.9848 5.48493 18.25 5.75015C18.5152 6.01537 18.6642 6.37508 18.6642 6.75015C18.6642 7.12522 18.5152 7.48493 18.25 7.75015L12.2414 13.7595C12.0831 13.9176 11.8875 14.0334 11.6727 14.0962L9.75735 14.6562C9.69999 14.6729 9.63918 14.6739 9.58129 14.6591C9.52341 14.6442 9.47057 14.6141 9.42832 14.5719C9.38607 14.5296 9.35595 14.4768 9.34112 14.4189C9.32629 14.361 9.32729 14.3002 9.34402 14.2428L9.90402 12.3275C9.96704 12.1129 10.083 11.9175 10.2414 11.7595L16.25 5.75015Z" stroke="#475660" stroke-linecap="round" stroke-linejoin="round"/>
</svg>
