<svg width="32" height="32" viewBox="0 0 32 32" fill="none" xmlns="http://www.w3.org/2000/svg">
<g clip-path="url(#clip0_420_1466)">
<path d="M16 10.9999C16 11.4419 16.1756 11.8659 16.4882 12.1784C16.8007 12.491 17.2246 12.6666 17.6667 12.6666C18.1087 12.6666 18.5326 12.491 18.8452 12.1784C19.1577 11.8659 19.3333 11.4419 19.3333 10.9999C19.3333 10.5579 19.1577 10.134 18.8452 9.82141C18.5326 9.50885 18.1087 9.33325 17.6667 9.33325C17.2246 9.33325 16.8007 9.50885 16.4882 9.82141C16.1756 10.134 16 10.5579 16 10.9999Z" stroke="#637580" stroke-width="1.25" stroke-linecap="round" stroke-linejoin="round"/>
<path d="M9.33333 11H16" stroke="#637580" stroke-width="1.25" stroke-linecap="round" stroke-linejoin="round"/>
<path d="M19.3333 11H22.6667" stroke="#637580" stroke-width="1.25" stroke-linecap="round" stroke-linejoin="round"/>
<path d="M11 15.9999C11 16.4419 11.1756 16.8659 11.4882 17.1784C11.8007 17.491 12.2246 17.6666 12.6667 17.6666C13.1087 17.6666 13.5326 17.491 13.8452 17.1784C14.1577 16.8659 14.3333 16.4419 14.3333 15.9999C14.3333 15.5579 14.1577 15.134 13.8452 14.8214C13.5326 14.5088 13.1087 14.3333 12.6667 14.3333C12.2246 14.3333 11.8007 14.5088 11.4882 14.8214C11.1756 15.134 11 15.5579 11 15.9999Z" stroke="#637580" stroke-width="1.25" stroke-linecap="round" stroke-linejoin="round"/>
<path d="M9.33333 16H11" stroke="#637580" stroke-width="1.25" stroke-linecap="round" stroke-linejoin="round"/>
<path d="M14.3333 16H22.6667" stroke="#637580" stroke-width="1.25" stroke-linecap="round" stroke-linejoin="round"/>
<path d="M18.5 20.9999C18.5 21.4419 18.6756 21.8659 18.9882 22.1784C19.3007 22.491 19.7246 22.6666 20.1667 22.6666C20.6087 22.6666 21.0326 22.491 21.3452 22.1784C21.6577 21.8659 21.8333 21.4419 21.8333 20.9999C21.8333 20.5579 21.6577 20.134 21.3452 19.8214C21.0326 19.5088 20.6087 19.3333 20.1667 19.3333C19.7246 19.3333 19.3007 19.5088 18.9882 19.8214C18.6756 20.134 18.5 20.5579 18.5 20.9999Z" stroke="#637580" stroke-width="1.25" stroke-linecap="round" stroke-linejoin="round"/>
<path d="M9.33333 21H18.5" stroke="#637580" stroke-width="1.25" stroke-linecap="round" stroke-linejoin="round"/>
<path d="M21.8333 21H22.6667" stroke="#637580" stroke-width="1.25" stroke-linecap="round" stroke-linejoin="round"/>
</g>
<defs>
<clipPath id="clip0_420_1466">
<rect width="20" height="20" fill="white" transform="translate(6 6)"/>
</clipPath>
</defs>
</svg>
