<svg width="32" height="32" viewBox="0 0 32 32" fill="none" xmlns="http://www.w3.org/2000/svg">
<path d="M14.3333 18.2168V19.5718C14.3302 19.8573 14.2537 20.1372 14.1113 20.3847C13.9689 20.6322 13.7653 20.839 13.52 20.9851C12.9993 21.3708 12.5757 21.8726 12.2829 22.4507C11.9901 23.0288 11.8362 23.6671 11.8333 24.3151" stroke="#8FA0A8" stroke-width="1.25" stroke-linecap="round" stroke-linejoin="round"/>
<path d="M17.6667 18.2168V19.5718C17.6698 19.8573 17.7463 20.1372 17.8887 20.3847C18.0311 20.6322 18.2347 20.839 18.48 20.9851C19.0007 21.3708 19.4243 21.8726 19.7171 22.4507C20.0099 23.0288 20.1638 23.6671 20.1667 24.3151" stroke="#8FA0A8" stroke-width="1.25" stroke-linecap="round" stroke-linejoin="round"/>
<path d="M21 13.4999H22.25C22.8025 13.4999 23.3324 13.2804 23.7231 12.8897C24.1138 12.499 24.3333 11.9691 24.3333 11.4166C24.3333 10.8641 24.1138 10.3341 23.7231 9.94345C23.3324 9.55275 22.8025 9.33325 22.25 9.33325H21" stroke="#8FA0A8" stroke-width="1.25" stroke-linecap="round" stroke-linejoin="round"/>
<path d="M9.33331 24.3333H22.6666" stroke="#8FA0A8" stroke-width="1.25" stroke-linecap="round" stroke-linejoin="round"/>
<path d="M11 13.5001C11 14.8262 11.5268 16.0979 12.4645 17.0356C13.4021 17.9733 14.6739 18.5001 16 18.5001C17.3261 18.5001 18.5979 17.9733 19.5355 17.0356C20.4732 16.0979 21 14.8262 21 13.5001V8.50008C21 8.27907 20.9122 8.06711 20.7559 7.91083C20.5996 7.75455 20.3877 7.66675 20.1667 7.66675H11.8333C11.6123 7.66675 11.4004 7.75455 11.2441 7.91083C11.0878 8.06711 11 8.27907 11 8.50008V13.5001Z" stroke="#8FA0A8" stroke-width="1.25" stroke-linecap="round" stroke-linejoin="round"/>
<path d="M11 13.4999H9.75002C9.19749 13.4999 8.66758 13.2804 8.27688 12.8897C7.88618 12.499 7.66669 11.9691 7.66669 11.4166C7.66669 10.8641 7.88618 10.3341 8.27688 9.94345C8.66758 9.55275 9.19749 9.33325 9.75002 9.33325H11" stroke="#8FA0A8" stroke-width="1.25" stroke-linecap="round" stroke-linejoin="round"/>
</svg>
