<svg width="32" height="32" viewBox="0 0 32 32" fill="none" xmlns="http://www.w3.org/2000/svg">
<path d="M13.5 17.4584C14.3054 17.4584 14.9583 16.8055 14.9583 16.0001C14.9583 15.1947 14.3054 14.5417 13.5 14.5417C12.6945 14.5417 12.0416 15.1947 12.0416 16.0001C12.0416 16.8055 12.6945 17.4584 13.5 17.4584Z" fill="#8FA0A8"/>
<path d="M13.5 11.6249C14.3054 11.6249 14.9583 10.972 14.9583 10.1666C14.9583 9.36117 14.3054 8.70825 13.5 8.70825C12.6945 8.70825 12.0416 9.36117 12.0416 10.1666C12.0416 10.972 12.6945 11.6249 13.5 11.6249Z" fill="#8FA0A8"/>
<path d="M13.5 23.2917C14.3054 23.2917 14.9583 22.6387 14.9583 21.8333C14.9583 21.0279 14.3054 20.375 13.5 20.375C12.6945 20.375 12.0416 21.0279 12.0416 21.8333C12.0416 22.6387 12.6945 23.2917 13.5 23.2917Z" fill="#8FA0A8"/>
<path d="M18.5 17.4584C19.3054 17.4584 19.9583 16.8055 19.9583 16.0001C19.9583 15.1947 19.3054 14.5417 18.5 14.5417C17.6945 14.5417 17.0416 15.1947 17.0416 16.0001C17.0416 16.8055 17.6945 17.4584 18.5 17.4584Z" fill="#8FA0A8"/>
<path d="M18.5 11.6249C19.3054 11.6249 19.9583 10.972 19.9583 10.1666C19.9583 9.36117 19.3054 8.70825 18.5 8.70825C17.6945 8.70825 17.0416 9.36117 17.0416 10.1666C17.0416 10.972 17.6945 11.6249 18.5 11.6249Z" fill="#8FA0A8"/>
<path d="M18.5 23.2917C19.3054 23.2917 19.9583 22.6387 19.9583 21.8333C19.9583 21.0279 19.3054 20.375 18.5 20.375C17.6945 20.375 17.0416 21.0279 17.0416 21.8333C17.0416 22.6387 17.6945 23.2917 18.5 23.2917Z" fill="#8FA0A8"/>
</svg>
