<svg width="89" height="24" viewBox="0 0 89 24" fill="none" xmlns="http://www.w3.org/2000/svg">
<path d="M5.98047 8.01562C6.52679 8.01568 6.9697 8.45856 6.96973 9.00488V12.0596L11.2646 8.82129V8.82422C11.7959 8.32415 12.5097 8.01562 13.2969 8.01562H13.9346C15.7921 8.01563 17.2976 9.52138 17.2979 11.3789V23.0107C17.2978 23.5571 16.855 24 16.3086 24H11.3184C10.772 24 10.3291 23.5571 10.3291 23.0107V14.1318H6.96973V23.0107C6.96972 23.5571 6.5268 23.9999 5.98047 24H0.989258C0.442904 24 6.00658e-06 23.5571 0 23.0107V9.00488C2.5221e-05 8.45854 0.442916 8.01566 0.989258 8.01562H5.98047Z" fill="#0D4556"/>
<path d="M68.9644 8.01562C69.5107 8.01568 69.9537 8.45856 69.9537 9.00488V18.084H73.3131V9.00488C73.3131 8.45852 73.756 8.01562 74.3023 8.01562H79.2926C79.8389 8.01563 80.2818 8.45852 80.2818 9.00488V23.0107C80.2818 23.5571 79.8389 24 79.2926 24H74.3023C73.7559 24 73.3131 23.5571 73.3131 23.0107V20.0059L68.9635 23.2402C68.4382 23.711 67.7467 23.9999 66.9859 24H66.3472C64.4898 23.9998 62.9841 22.4941 62.984 20.6367V9.00488C62.984 8.45854 63.4269 8.01566 63.9732 8.01562H68.9644Z" fill="#0D4556"/>
<path d="M86.8283 1.15643L81.6754 4.94031C81.4215 5.1267 81.2716 5.42281 81.2716 5.73773V23.0107C81.2716 23.5571 81.7145 24 82.2609 24H87.4139C87.9603 24 88.4032 23.5571 88.4032 23.0107V1.95385C88.4032 1.14322 87.4817 0.676641 86.8283 1.15643Z" fill="#0D4556"/>
<path d="M42.1321 1.15643L36.9791 4.94031C36.7253 5.1267 36.5754 5.42281 36.5754 5.73773V23.0107C36.5754 23.5571 37.0183 24 37.5647 24H42.7177C43.264 24 43.707 23.5571 43.707 23.0107V1.95385C43.707 1.14322 42.7855 0.676641 42.1321 1.15643Z" fill="#0D4556"/>
<path d="M31.6285 8.01562C33.8139 8.01563 35.5863 9.78722 35.5865 11.9727V23.0107C35.5865 23.5571 35.1426 24 34.5962 24H29.606C29.0596 24 28.6167 23.5571 28.6167 23.0107V20.0332L24.1861 23.3135C23.6717 23.7416 23.0111 24 22.2896 24H21.6509C19.7935 23.9998 18.2878 22.4941 18.2876 20.6367V16.3789C18.2876 15.8325 18.7305 15.3897 19.2769 15.3896H28.6167V9.67285H26.9244C26.7109 9.67285 26.5026 9.74234 26.3316 9.87012L19.8687 14.6992C19.2164 15.1864 18.2879 14.7214 18.2876 13.9072V9.00488C18.2877 8.45855 18.7306 8.01567 19.2769 8.01562H31.6285ZM25.2574 18.084H28.6167V17.0469H25.2574V18.084Z" fill="#0D4556"/>
<path d="M57.8964 8.01855C57.9347 8.01709 57.9731 8.01563 58.0117 8.01562C60.1971 8.01563 61.9949 9.78723 61.9951 11.9727V15.6787C61.9951 16.2251 61.5512 16.668 61.0048 16.668H51.666V22.3428H53.3583C53.5717 22.3427 53.7792 22.2732 53.9501 22.1455L60.413 17.3164C61.0654 16.829 61.9948 17.2942 61.9951 18.1084V23.0107C61.9951 23.5571 61.5512 24 61.0048 24H48.6533C46.4679 23.9999 44.6963 22.2283 44.6962 20.043V11.9727C44.6963 10.1736 45.8972 8.65551 47.541 8.1748C47.8459 8.07285 48.1715 8.01563 48.5107 8.01562H57.7783C57.8177 8.01562 57.8574 8.01708 57.8964 8.01855ZM51.666 15.0107H55.0253V14.1318H51.666V15.0107Z" fill="#0D4556"/>
</svg>
