<svg width="32" height="32" viewBox="0 0 32 32" fill="none" xmlns="http://www.w3.org/2000/svg">
<g clip-path="url(#clip0_341_935)">
<path d="M16.0001 16.8334C16.4603 16.8334 16.8334 16.4603 16.8334 16.0001C16.8334 15.5398 16.4603 15.1667 16.0001 15.1667C15.5398 15.1667 15.1667 15.5398 15.1667 16.0001C15.1667 16.4603 15.5398 16.8334 16.0001 16.8334Z" stroke="#8FA0A8" stroke-width="1.25" stroke-linecap="round" stroke-linejoin="round"/>
<path d="M16.0001 10.9999C16.4603 10.9999 16.8334 10.6268 16.8334 10.1666C16.8334 9.70635 16.4603 9.33325 16.0001 9.33325C15.5398 9.33325 15.1667 9.70635 15.1667 10.1666C15.1667 10.6268 15.5398 10.9999 16.0001 10.9999Z" stroke="#8FA0A8" stroke-width="1.25" stroke-linecap="round" stroke-linejoin="round"/>
<path d="M16.0001 22.6667C16.4603 22.6667 16.8334 22.2936 16.8334 21.8333C16.8334 21.3731 16.4603 21 16.0001 21C15.5398 21 15.1667 21.3731 15.1667 21.8333C15.1667 22.2936 15.5398 22.6667 16.0001 22.6667Z" stroke="#8FA0A8" stroke-width="1.25" stroke-linecap="round" stroke-linejoin="round"/>
</g>
<defs>
<clipPath id="clip0_341_935">
<rect width="20" height="20" fill="white" transform="translate(6 6)"/>
</clipPath>
</defs>
</svg>
