<svg width="32" height="32" viewBox="0 0 32 32" fill="none" xmlns="http://www.w3.org/2000/svg">
<path d="M17.1666 7.66675H11C10.558 7.66675 10.134 7.84234 9.82147 8.1549C9.50891 8.46746 9.33331 8.89139 9.33331 9.33341V22.6667C9.33331 23.1088 9.50891 23.5327 9.82147 23.8453C10.134 24.1578 10.558 24.3334 11 24.3334H21C21.442 24.3334 21.8659 24.1578 22.1785 23.8453C22.4911 23.5327 22.6666 23.1088 22.6666 22.6667V16.5001" stroke="#8FA0A8" stroke-width="1.25" stroke-linecap="round" stroke-linejoin="round"/>
<path d="M7.66669 11H11" stroke="#8FA0A8" stroke-width="1.25" stroke-linecap="round" stroke-linejoin="round"/>
<path d="M7.66669 14.3333H11" stroke="#8FA0A8" stroke-width="1.25" stroke-linecap="round" stroke-linejoin="round"/>
<path d="M7.66669 17.6667H11" stroke="#8FA0A8" stroke-width="1.25" stroke-linecap="round" stroke-linejoin="round"/>
<path d="M7.66669 21H11" stroke="#8FA0A8" stroke-width="1.25" stroke-linecap="round" stroke-linejoin="round"/>
<path d="M23.815 10.6883C24.147 10.3563 24.3335 9.90609 24.3335 9.43663C24.3335 8.96716 24.147 8.51692 23.815 8.18496C23.4831 7.853 23.0328 7.6665 22.5634 7.6665C22.0939 7.6665 21.6437 7.853 21.3117 8.18496L17.1367 12.3616C16.9386 12.5596 16.7935 12.8044 16.715 13.0733L16.0175 15.465C15.9966 15.5367 15.9954 15.6127 16.0139 15.685C16.0324 15.7574 16.0701 15.8234 16.1229 15.8763C16.1757 15.9291 16.2418 15.9667 16.3141 15.9853C16.3865 16.0038 16.4625 16.0025 16.5342 15.9816L18.9259 15.2841C19.1947 15.2056 19.4395 15.0606 19.6375 14.8625L23.815 10.6883Z" stroke="#8FA0A8" stroke-width="1.25" stroke-linecap="round" stroke-linejoin="round"/>
</svg>
