<svg width="16" height="16" viewBox="0 0 16 16" fill="none" xmlns="http://www.w3.org/2000/svg">
<path d="M10.6667 9.33301V10.7997L11.7334 11.4663" stroke="#1E7A90" stroke-linecap="round" stroke-linejoin="round"/>
<path d="M10.6667 1.33301V3.99967" stroke="#1E7A90" stroke-linecap="round" stroke-linejoin="round"/>
<path d="M14 5.00033V4.00033C14 3.6467 13.8595 3.30756 13.6095 3.05752C13.3594 2.80747 13.0203 2.66699 12.6667 2.66699H3.33333C2.97971 2.66699 2.64057 2.80747 2.39052 3.05752C2.14048 3.30756 2 3.6467 2 4.00033V13.3337C2 13.6873 2.14048 14.0264 2.39052 14.2765C2.64057 14.5265 2.97971 14.667 3.33333 14.667H5.66667" stroke="#1E7A90" stroke-linecap="round" stroke-linejoin="round"/>
<path d="M2 6.66699H5.33333" stroke="#1E7A90" stroke-linecap="round" stroke-linejoin="round"/>
<path d="M5.33331 1.33301V3.99967" stroke="#1E7A90" stroke-linecap="round" stroke-linejoin="round"/>
<path d="M10.6667 14.667C12.8758 14.667 14.6667 12.8761 14.6667 10.667C14.6667 8.45785 12.8758 6.66699 10.6667 6.66699C8.45755 6.66699 6.66669 8.45785 6.66669 10.667C6.66669 12.8761 8.45755 14.667 10.6667 14.667Z" stroke="#1E7A90" stroke-linecap="round" stroke-linejoin="round"/>
</svg>
