<svg width="32" height="21" viewBox="0 0 32 21" fill="none" xmlns="http://www.w3.org/2000/svg">
<path d="M7.85645 0C8.57427 6.27544e-08 9.15625 0.581978 9.15625 1.2998V5.3125L14.7988 1.05859C15.4966 0.402613 16.4355 -9.03287e-08 17.4688 0H18.3066C20.7472 2.13359e-07 22.7255 1.97842 22.7256 4.41895V19.7002C22.7256 20.418 22.1436 21 21.4258 21H14.8691C14.1513 21 13.5693 20.418 13.5693 19.7002V8.03516H9.15625V19.7002C9.15625 20.418 8.57427 21 7.85645 21H1.2998C0.581978 21 -6.27544e-08 20.418 0 19.7002V1.2998C6.27544e-08 0.581978 0.581978 -6.27544e-08 1.2998 0H7.85645Z" fill="#0D4556"/>
<path d="M24.1201 20.2449C24.1201 20.6619 24.4582 21 24.8752 21L30.3768 21C30.7938 21 31.1319 20.6619 31.1319 20.2449L31.1319 16.6851C31.1319 15.1956 29.9245 13.9882 28.435 13.9882L24.8752 13.9882C24.4582 13.9882 24.1201 14.3263 24.1201 14.7433L24.1201 20.2449Z" fill="#0D4556"/>
</svg>
